<?xml version="1.0" encoding="UTF-8" standalone="no"?>
<!DOCTYPE svg PUBLIC "-//W3C//DTD SVG 1.1//EN"
 "http://www.w3.org/Graphics/SVG/1.1/DTD/svg11.dtd">
<!-- Generated by graphviz version 12.2.0 (0)
 -->
<!-- Title: G Pages: 1 -->
<svg width="1086pt" height="91pt"
 viewBox="0.00 0.00 1086.03 90.90" xmlns="http://www.w3.org/2000/svg" xmlns:xlink="http://www.w3.org/1999/xlink">
<g id="graph0" class="graph" transform="scale(1 1) rotate(0) translate(18 72.9)">
<title>G</title>
<polygon fill="white" stroke="none" points="-18,18 -18,-72.9 1068.03,-72.9 1068.03,18 -18,18"/>
<!-- tag -->
<g id="node1" class="node">
<title>tag</title>
<path fill="#fee2e2" stroke="#dc2626" stroke-width="1.2" d="M101.04,-48.15C101.04,-48.15 12,-48.15 12,-48.15 6,-48.15 0,-42.15 0,-36.15 0,-36.15 0,-18.75 0,-18.75 0,-12.75 6,-6.75 12,-6.75 12,-6.75 101.04,-6.75 101.04,-6.75 107.04,-6.75 113.04,-12.75 113.04,-18.75 113.04,-18.75 113.04,-36.15 113.04,-36.15 113.04,-42.15 107.04,-48.15 101.04,-48.15"/>
<text text-anchor="middle" x="56.52" y="-30.5" font-family="Arial" font-size="11.00">Nueva imagen</text>
<text text-anchor="middle" x="56.52" y="-17" font-family="Arial" font-size="11.00">versión defectuosa</text>
</g>
<!-- canary -->
<g id="node2" class="node">
<title>canary</title>
<path fill="#fef3c7" stroke="#ca8a04" stroke-width="1.2" d="M227.08,-45.45C227.08,-45.45 168.04,-45.45 168.04,-45.45 162.04,-45.45 156.04,-39.45 156.04,-33.45 156.04,-33.45 156.04,-21.45 156.04,-21.45 156.04,-15.45 162.04,-9.45 168.04,-9.45 168.04,-9.45 227.08,-9.45 227.08,-9.45 233.08,-9.45 239.08,-15.45 239.08,-21.45 239.08,-21.45 239.08,-33.45 239.08,-33.45 239.08,-39.45 233.08,-45.45 227.08,-45.45"/>
<text text-anchor="middle" x="197.56" y="-23.75" font-family="Arial" font-size="11.00">Canary 10%</text>
</g>
<!-- tag&#45;&gt;canary -->
<g id="edge1" class="edge">
<title>tag&#45;&gt;canary</title>
<path fill="none" stroke="black" d="M113.27,-27.45C123.59,-27.45 134.33,-27.45 144.54,-27.45"/>
<polygon fill="black" stroke="black" points="144.26,-30.95 154.26,-27.45 144.26,-23.95 144.26,-30.95"/>
</g>
<!-- k6 -->
<g id="node3" class="node">
<title>k6</title>
<path fill="#fee2e2" stroke="#dc2626" stroke-width="1.2" d="M383.12,-54.9C383.12,-54.9 294.08,-54.9 294.08,-54.9 288.08,-54.9 282.08,-48.9 282.08,-42.9 282.08,-42.9 282.08,-12 282.08,-12 282.08,-6 288.08,0 294.08,0 294.08,0 383.12,0 383.12,0 389.12,0 395.12,-6 395.12,-12 395.12,-12 395.12,-42.9 395.12,-42.9 395.12,-48.9 389.12,-54.9 383.12,-54.9"/>
<text text-anchor="middle" x="338.6" y="-37.25" font-family="Arial" font-size="11.00">AnalysisTemplate</text>
<text text-anchor="middle" x="338.6" y="-23.75" font-family="Arial" font-size="11.00">k6 devuelve error</text>
<text text-anchor="middle" x="338.6" y="-10.25" font-family="Arial" font-size="11.00">http_req_failed &gt; 0</text>
</g>
<!-- canary&#45;&gt;k6 -->
<g id="edge2" class="edge">
<title>canary&#45;&gt;k6</title>
<path fill="none" stroke="black" d="M239.52,-27.45C249.23,-27.45 259.84,-27.45 270.37,-27.45"/>
<polygon fill="black" stroke="black" points="270.22,-30.95 280.22,-27.45 270.22,-23.95 270.22,-30.95"/>
</g>
<!-- abort -->
<g id="node4" class="node">
<title>abort</title>
<path fill="#fee2e2" stroke="#dc2626" stroke-width="1.2" d="M532.41,-48.15C532.41,-48.15 450.12,-48.15 450.12,-48.15 444.12,-48.15 438.12,-42.15 438.12,-36.15 438.12,-36.15 438.12,-18.75 438.12,-18.75 438.12,-12.75 444.12,-6.75 450.12,-6.75 450.12,-6.75 532.41,-6.75 532.41,-6.75 538.41,-6.75 544.41,-12.75 544.41,-18.75 544.41,-18.75 544.41,-36.15 544.41,-36.15 544.41,-42.15 538.41,-48.15 532.41,-48.15"/>
<text text-anchor="middle" x="491.26" y="-30.5" font-family="Arial" font-size="11.00">Argo Rollouts</text>
<text text-anchor="middle" x="491.26" y="-17" font-family="Arial" font-size="11.00">Abort / Degraded</text>
</g>
<!-- k6&#45;&gt;abort -->
<g id="edge3" class="edge">
<title>k6&#45;&gt;abort</title>
<path fill="none" stroke="black" d="M395.27,-27.45C405.38,-27.45 416,-27.45 426.33,-27.45"/>
<polygon fill="black" stroke="black" points="426.31,-30.95 436.31,-27.45 426.31,-23.95 426.31,-30.95"/>
</g>
<!-- stable -->
<g id="node5" class="node">
<title>stable</title>
<path fill="#dcfce7" stroke="#16a34a" stroke-width="1.2" d="M738.7,-48.15C738.7,-48.15 599.41,-48.15 599.41,-48.15 593.41,-48.15 587.41,-42.15 587.41,-36.15 587.41,-36.15 587.41,-18.75 587.41,-18.75 587.41,-12.75 593.41,-6.75 599.41,-6.75 599.41,-6.75 738.7,-6.75 738.7,-6.75 744.7,-6.75 750.7,-12.75 750.7,-18.75 750.7,-18.75 750.7,-36.15 750.7,-36.15 750.7,-42.15 744.7,-48.15 738.7,-48.15"/>
<text text-anchor="middle" x="669.05" y="-30.5" font-family="Arial" font-size="11.00">Servicio estable</text>
<text text-anchor="middle" x="669.05" y="-17" font-family="Arial" font-size="11.00">continúa atendiendo usuarios</text>
</g>
<!-- abort&#45;&gt;stable -->
<g id="edge4" class="edge">
<title>abort&#45;&gt;stable</title>
<path fill="none" stroke="black" d="M544.53,-27.45C554.45,-27.45 565.09,-27.45 575.82,-27.45"/>
<polygon fill="black" stroke="black" points="575.49,-30.95 585.49,-27.45 575.49,-23.95 575.49,-30.95"/>
</g>
<!-- restore -->
<g id="node6" class="node">
<title>restore</title>
<path fill="#dbeafe" stroke="#2563eb" stroke-width="1.2" d="M897.74,-48.15C897.74,-48.15 805.7,-48.15 805.7,-48.15 799.7,-48.15 793.7,-42.15 793.7,-36.15 793.7,-36.15 793.7,-18.75 793.7,-18.75 793.7,-12.75 799.7,-6.75 805.7,-6.75 805.7,-6.75 897.74,-6.75 897.74,-6.75 903.74,-6.75 909.74,-12.75 909.74,-18.75 909.74,-18.75 909.74,-36.15 909.74,-36.15 909.74,-42.15 903.74,-48.15 897.74,-48.15"/>
<text text-anchor="middle" x="851.72" y="-30.5" font-family="Arial" font-size="11.00">PR de restauración</text>
<text text-anchor="middle" x="851.72" y="-17" font-family="Arial" font-size="11.00">ArgoCD sincroniza</text>
</g>
<!-- stable&#45;&gt;restore -->
<g id="edge5" class="edge">
<title>stable&#45;&gt;restore</title>
<path fill="none" stroke="black" d="M751.14,-27.45C761.5,-27.45 772.02,-27.45 782.16,-27.45"/>
<polygon fill="black" stroke="black" points="781.89,-30.95 791.89,-27.45 781.89,-23.95 781.89,-30.95"/>
</g>
<!-- healthy -->
<g id="node7" class="node">
<title>healthy</title>
<path fill="#dcfce7" stroke="#16a34a" stroke-width="1.2" d="M1038.03,-48.15C1038.03,-48.15 964.74,-48.15 964.74,-48.15 958.74,-48.15 952.74,-42.15 952.74,-36.15 952.74,-36.15 952.74,-18.75 952.74,-18.75 952.74,-12.75 958.74,-6.75 964.74,-6.75 964.74,-6.75 1038.03,-6.75 1038.03,-6.75 1044.03,-6.75 1050.03,-12.75 1050.03,-18.75 1050.03,-18.75 1050.03,-36.15 1050.03,-36.15 1050.03,-42.15 1044.03,-48.15 1038.03,-48.15"/>
<text text-anchor="middle" x="1001.38" y="-30.5" font-family="Arial" font-size="11.00">Healthy</text>
<text text-anchor="middle" x="1001.38" y="-17" font-family="Arial" font-size="11.00">revisión estable</text>
</g>
<!-- restore&#45;&gt;healthy -->
<g id="edge6" class="edge">
<title>restore&#45;&gt;healthy</title>
<path fill="none" stroke="black" d="M910.23,-27.45C920.35,-27.45 930.9,-27.45 941.07,-27.45"/>
<polygon fill="black" stroke="black" points="940.83,-30.95 950.83,-27.45 940.83,-23.95 940.83,-30.95"/>
</g>
</g>
</svg>
